<?xml version="1.0" encoding="UTF-8"?>
<svg id="_レイヤー_1" data-name="レイヤー 1" xmlns="http://www.w3.org/2000/svg" viewBox="0 0 180 180">
  <defs>
    <style>
      .cls-1 {
        fill: #f0b100;
      }

      .cls-2 {
        fill: #2b2822;
      }
    </style>
  </defs>
  <rect class="cls-2" width="180" height="180" rx="22.05" ry="22.05"/>
  <g>
    <g>
      <path class="cls-1" d="M42.67,70.01l-11.07-26.74-4.26-10.3h39.12c23.8,0,44.58,12.98,55.63,32.23l-13.91,33.61-12.62,30.49-12.26,29.65c-1.15.32-2.31.59-3.49.84-3.79.8-7.71,1.27-11.71,1.37l-36.06.09c-1.2,0-1.64-1.58-.6-2.19,2.66-1.56,5.72-3.61,8.87-6.3,4.83-4.12,6.3-6.69,9.99-9.99,3.53-3.16,9.07-6.99,17.76-9.53.43-.12.87-.2,1.31-.24,2.1-.17,4.91-.58,8.09-1.6,5.8-1.86,10.95-5.15,15.06-9.45,5.8-6.08,9.5-14.18,9.92-23.14.03-.58.04-1.15.04-1.73,0-19.58-15.61-35.52-35.07-36.03.01.05.02.07.02.07l25.09,60.64c-5.67,6.39-14.76,10.92-23.77,11.28l-2.19-5.45-23.79-57.5"/>
      <path class="cls-2" d="M32.05,163.27c-1.46,0-2.7-.95-3.09-2.36-.38-1.41.21-2.86,1.47-3.6,3.04-1.78,5.92-3.83,8.58-6.09,2.59-2.21,4.18-3.96,5.72-5.65,1.3-1.43,2.52-2.77,4.24-4.31,4.66-4.18,10.41-7.38,17.11-9.52l-1.37-3.4-23.79-57.48,3.74-1.55,23.79,57.5,1.65,4.09c2.3-.24,4.57-.72,6.76-1.43,2.92-.94,5.7-2.27,8.26-3.95,1.84-1.23,3.55-2.64,5.06-4.2l-24.6-59.44s-.06-.12-.11-.33l-.68-2.6,2.69.07c9.95.26,19.26,4.34,26.22,11.48,6.97,7.15,10.81,16.59,10.81,26.58,0,.68-.01,1.27-.04,1.82-.08,1.66-.27,3.31-.56,4.93l15.92-38.48c-11.17-18.76-31.53-30.36-53.38-30.36H30.37l14.17,34.25-3.74,1.55L24.32,30.94h42.14c23.62,0,45.61,12.74,57.39,33.25l.5.86-39.54,95.57-.96.26c-1.16.32-2.34.6-3.6.87-3.97.84-8.04,1.31-12.08,1.42l-36.11.09h0ZM69.46,135.02c-.28.03-.55.08-.81.16-6.73,1.97-12.44,5.03-16.98,9.1-1.56,1.4-2.72,2.67-3.94,4.02-1.62,1.79-3.3,3.63-6.09,6.01-2.08,1.77-4.29,3.42-6.6,4.93l33.07-.08c3.75-.1,7.56-.54,11.29-1.33.84-.18,1.64-.36,2.42-.56l15.93-38.5c-1.12,1.62-2.37,3.16-3.75,4.6-2.45,2.57-5.24,4.78-8.28,6.57-4.97,2.95-10.66,4.78-16.26,5.11ZM70.54,63.29l22.67,54.79c4.35-5.53,6.89-12.3,7.23-19.37.02-.49.03-1.02.03-1.63,0-17.51-12.91-31.79-29.93-33.79ZM69.33,60.35l.02.05s-.02-.05-.02-.05Z"/>
    </g>
    <g>
      <path class="cls-1" d="M81.32,163.58l28.37-.02.99-2.4,53.04-128.19h-28.41l-53.99,130.61Z"/>
      <path class="cls-2" d="M78.29,165.6L133.96,30.94h32.79l-55.71,134.64-32.75.02ZM136.66,34.99l-52.32,126.57,23.99-.02.48-1.16,51.89-125.4h-24.04Z"/>
    </g>
  </g>
</svg>