<?xml version="1.0" encoding="UTF-8"?>
<svg id="_レイヤー_2" data-name="レイヤー 2" xmlns="http://www.w3.org/2000/svg" viewBox="0 0 34.03 34.03">
  <defs>
    <style>
      .cls-1 {
        fill: #f0b100;
      }
    </style>
  </defs>
  <g id="_レイヤー_1-2" data-name="レイヤー 1">
    <path class="cls-1" d="M25.98,19.84s0,0,0,0c.61,1.29.96,2.73.96,4.25,0,5.48-4.45,9.93-9.93,9.93s-9.92-4.45-9.92-9.92c0-1.52.35-2.96.96-4.25.11-.24.24-.48.37-.71.29-.51.62-.98,1-1.42,1.82-2.17,4.55-3.54,7.6-3.54,2.23,0,4.29.74,5.96,1.99.6.46,1.16.98,1.65,1.56.37.44.7.92,1,1.42.13.23.25.47.37.7h0ZM27.74,18.59c-2-3.88-6.05-6.54-10.72-6.54s-8.72,2.66-10.72,6.54L0,13.47,17.01,0l17.01,13.47-6.29,5.12h0Z"/>
  </g>
</svg>