<?xml version="1.0" encoding="UTF-8"?>
<svg id="_レイヤー_2" data-name="レイヤー 2" xmlns="http://www.w3.org/2000/svg" viewBox="0 0 34.6 34.45">
  <defs>
    <style>
      .cls-1 {
        fill: #f0b100;
      }
    </style>
  </defs>
  <g id="_レイヤー_1-2" data-name="レイヤー 1">
    <path class="cls-1" d="M32.32,0c1.1.21,1.99.95,2.21,2.08.1,10.12.08,20.27,0,30.4-.16.93-.8,1.6-1.64,1.98H1.64c-.85-.38-1.49-1.08-1.64-2.02V2.2C.11,1.37.64.66,1.37.28l.85-.28h30.1ZM7.23,4.81c-1.48.18-2.6,1.65-2.52,3.11.17,2.9,4.07,3.85,5.52,1.32,1.26-2.2-.53-4.73-3.01-4.43ZM29.44,29.44v-9.88c-.12-2.96-.77-5.95-4.03-6.76-2.23-.55-4.85-.21-6.4,1.61-.2.24-.34.53-.52.76-.03.04,0,.08-.1.06v-2.26h-4.93v16.47h5.11v-8.55c.08-1.74.48-3.49,2.47-3.79,2.41-.36,3.23,1.19,3.3,3.34v8.99s5.1,0,5.1,0ZM10.21,12.96h-5.11v16.47h5.11V12.96Z"/>
  </g>
</svg>