<?xml version="1.0" encoding="UTF-8"?>
<svg id="_レイヤー_2" data-name="レイヤー 2" xmlns="http://www.w3.org/2000/svg" viewBox="0 0 40 40">
  <defs>
    <style>
      .cls-1 {
        fill: #f0b100;
        fill-rule: evenodd;
      }
    </style>
  </defs>
  <g id="_レイヤー_1-2" data-name="レイヤー 1">
    <g>
      <path class="cls-1" d="M40,20c0,11.05-8.95,20-20,20S0,31.05,0,20,8.95,0,20,0s20,8.95,20,20ZM20,36.84c9.3,0,16.84-7.54,16.84-16.84S29.3,3.16,20,3.16,3.16,10.7,3.16,20s7.54,16.84,16.84,16.84Z"/>
      <path class="cls-1" d="M22.77,13.72h-5.68v14.5h5.71c4.75,0,7.67-3.52,7.67-7.25,0-1.71-.59-3.52-1.85-4.91-1.27-1.39-3.2-2.34-5.85-2.34h0ZM22.55,25.88h-2.93v-9.83h2.83c1.9,0,3.25.58,4.13,1.46.88.89,1.31,2.11,1.31,3.46,0,.82-.25,2.05-1.04,3.07-.78,1.01-2.1,1.84-4.3,1.84h0ZM28.15,20.97v.07-.07c0-2.8-1.79-5.18-5.7-5.18h-3.09,3.09c3.91,0,5.7,2.37,5.7,5.18ZM30.21,21.07c-.05,3.55-2.85,6.89-7.4,6.89h-5.45v-13.98,13.98h5.45c4.56,0,7.35-3.34,7.4-6.89ZM11.87,13.76v14.49h2.53v-14.49h-2.53ZM14.14,14.02v13.96h-2.01,2.01v-13.96h0ZM13.14,12.69c.87,0,1.58-.72,1.58-1.58s-.7-1.58-1.58-1.58-1.58.7-1.58,1.58.7,1.58,1.58,1.58h0Z"/>
    </g>
  </g>
</svg>