<svg width="93" height="32" viewBox="0 0 93 32" fill="none" xmlns="http://www.w3.org/2000/svg">
<path d="M14.6307 11.7273C14.6307 13.3134 14.33 14.6629 13.7287 15.7756C13.1321 16.8883 12.3177 17.7382 11.2855 18.3253C10.258 18.9077 9.10275 19.1989 7.8196 19.1989C6.52699 19.1989 5.36695 18.9053 4.33949 18.3182C3.31203 17.7311 2.5 16.8812 1.90341 15.7685C1.30682 14.6558 1.00852 13.3087 1.00852 11.7273C1.00852 10.1411 1.30682 8.79167 1.90341 7.67898C2.5 6.56629 3.31203 5.71875 4.33949 5.13636C5.36695 4.54924 6.52699 4.25568 7.8196 4.25568C9.10275 4.25568 10.258 4.54924 11.2855 5.13636C12.3177 5.71875 13.1321 6.56629 13.7287 7.67898C14.33 8.79167 14.6307 10.1411 14.6307 11.7273ZM11.5128 11.7273C11.5128 10.6998 11.3589 9.83333 11.0511 9.12784C10.7481 8.42235 10.3196 7.88731 9.76562 7.52273C9.21165 7.15814 8.56297 6.97585 7.8196 6.97585C7.07623 6.97585 6.42756 7.15814 5.87358 7.52273C5.3196 7.88731 4.88873 8.42235 4.58097 9.12784C4.27794 9.83333 4.12642 10.6998 4.12642 11.7273C4.12642 12.7547 4.27794 13.6212 4.58097 14.3267C4.88873 15.0322 5.3196 15.5672 5.87358 15.9318C6.42756 16.2964 7.07623 16.4787 7.8196 16.4787C8.56297 16.4787 9.21165 16.2964 9.76562 15.9318C10.3196 15.5672 10.7481 15.0322 11.0511 14.3267C11.3589 13.6212 11.5128 12.7547 11.5128 11.7273ZM21.8545 8.09091V10.3636H15.2849V8.09091H21.8545ZM16.7763 5.47727H19.8019V15.6477C19.8019 15.9271 19.8445 16.1449 19.9298 16.3011C20.015 16.4527 20.1334 16.5592 20.2849 16.6207C20.4411 16.6823 20.621 16.7131 20.8246 16.7131C20.9667 16.7131 21.1087 16.7012 21.2508 16.6776C21.3928 16.6491 21.5017 16.6278 21.5775 16.6136L22.0533 18.8651C21.9018 18.9124 21.6888 18.9669 21.4141 19.0284C21.1395 19.0947 20.8057 19.1349 20.4127 19.1491C19.6835 19.1776 19.0443 19.0805 18.4951 18.858C17.9506 18.6354 17.5268 18.2898 17.2238 17.821C16.9208 17.3523 16.7716 16.7604 16.7763 16.0455V5.47727ZM26.1362 19.206C25.4401 19.206 24.8199 19.0852 24.2754 18.8438C23.7308 18.5975 23.3 18.2353 22.9827 17.7571C22.6702 17.2741 22.514 16.6728 22.514 15.9531C22.514 15.3471 22.6253 14.8381 22.8478 14.4261C23.0703 14.0142 23.3734 13.6828 23.7569 13.4318C24.1404 13.1809 24.576 12.9915 25.0637 12.8636C25.5561 12.7358 26.0722 12.6458 26.612 12.5938C27.2465 12.5275 27.7578 12.4659 28.1461 12.4091C28.5344 12.3475 28.8161 12.2576 28.9913 12.1392C29.1665 12.0208 29.254 11.8456 29.254 11.6136V11.571C29.254 11.1212 29.112 10.7732 28.8279 10.527C28.5486 10.2808 28.1508 10.1577 27.6347 10.1577C27.0902 10.1577 26.657 10.2784 26.335 10.5199C26.013 10.7566 25.8 11.0549 25.6958 11.4148L22.8975 11.1875C23.0396 10.5246 23.3189 9.9517 23.7356 9.46875C24.1522 8.98106 24.6897 8.60701 25.3478 8.34659C26.0107 8.08144 26.7777 7.94886 27.6489 7.94886C28.255 7.94886 28.835 8.01989 29.389 8.16193C29.9477 8.30398 30.4425 8.52415 30.8734 8.82244C31.309 9.12074 31.6522 9.50426 31.9032 9.97301C32.1541 10.437 32.2796 10.9934 32.2796 11.642V19H29.4103V17.4872H29.3251C29.1499 17.8281 28.9155 18.1288 28.6219 18.3892C28.3284 18.6449 27.9756 18.8461 27.5637 18.9929C27.1518 19.1349 26.6759 19.206 26.1362 19.206ZM27.0026 17.1179C27.4477 17.1179 27.8407 17.0303 28.1816 16.8551C28.5225 16.6752 28.79 16.4337 28.9842 16.1307C29.1783 15.8277 29.2754 15.4844 29.2754 15.1009V13.9432C29.1807 14.0047 29.0504 14.0616 28.8847 14.1136C28.7237 14.161 28.5415 14.206 28.3379 14.2486C28.1343 14.2865 27.9307 14.322 27.7271 14.3551C27.5235 14.3835 27.3388 14.4096 27.1731 14.4332C26.818 14.4853 26.5078 14.5682 26.2427 14.6818C25.9775 14.7955 25.7716 14.9493 25.6248 15.1435C25.478 15.3329 25.4046 15.5696 25.4046 15.8537C25.4046 16.2656 25.5538 16.5805 25.8521 16.7983C26.1551 17.0114 26.5386 17.1179 27.0026 17.1179ZM37.7126 19V4.45455H40.7879V10.456H47.0308V4.45455H50.099V19H47.0308V12.9915H40.7879V19H37.7126ZM51.7777 19V8.09091H54.8033V19H51.7777ZM53.2976 6.68466C52.8478 6.68466 52.4619 6.53551 52.1399 6.23722C51.8227 5.93419 51.6641 5.57197 51.6641 5.15057C51.6641 4.7339 51.8227 4.37642 52.1399 4.07812C52.4619 3.77509 52.8478 3.62358 53.2976 3.62358C53.7474 3.62358 54.1309 3.77509 54.4482 4.07812C54.7701 4.37642 54.9311 4.7339 54.9311 5.15057C54.9311 5.57197 54.7701 5.93419 54.4482 6.23722C54.1309 6.53551 53.7474 6.68466 53.2976 6.68466ZM56.4269 19V8.09091H59.3602V9.99432H59.4738C59.6727 9.31723 60.0065 8.80587 60.4752 8.46023C60.944 8.10985 61.4837 7.93466 62.0945 7.93466C62.246 7.93466 62.4094 7.94413 62.5846 7.96307C62.7598 7.98201 62.9137 8.00805 63.0462 8.04119V10.7259C62.9042 10.6832 62.7077 10.6454 62.4567 10.6122C62.2058 10.5791 61.9762 10.5625 61.7678 10.5625C61.3228 10.5625 60.925 10.6596 60.5746 10.8537C60.229 11.0431 59.9544 11.3082 59.7508 11.6491C59.5519 11.9901 59.4525 12.383 59.4525 12.8281V19H56.4269ZM68.2317 19.2131C67.1285 19.2131 66.1744 18.9787 65.3695 18.5099C64.5693 18.0365 63.9514 17.3783 63.5158 16.5355C63.0802 15.688 62.8624 14.7055 62.8624 13.5881C62.8624 12.4612 63.0802 11.4763 63.5158 10.6335C63.9514 9.78598 64.5693 9.12784 65.3695 8.65909C66.1744 8.18561 67.1285 7.94886 68.2317 7.94886C69.3349 7.94886 70.2866 8.18561 71.0868 8.65909C71.8917 9.12784 72.512 9.78598 72.9476 10.6335C73.3832 11.4763 73.601 12.4612 73.601 13.5881C73.601 14.7055 73.3832 15.688 72.9476 16.5355C72.512 17.3783 71.8917 18.0365 71.0868 18.5099C70.2866 18.9787 69.3349 19.2131 68.2317 19.2131ZM68.2459 16.8693C68.7478 16.8693 69.1668 16.7273 69.503 16.4432C69.8392 16.1544 70.0925 15.7614 70.2629 15.2642C70.4381 14.767 70.5257 14.2012 70.5257 13.5668C70.5257 12.9323 70.4381 12.3665 70.2629 11.8693C70.0925 11.3722 69.8392 10.9792 69.503 10.6903C69.1668 10.4015 68.7478 10.2571 68.2459 10.2571C67.7393 10.2571 67.3131 10.4015 66.9675 10.6903C66.6266 10.9792 66.3685 11.3722 66.1933 11.8693C66.0229 12.3665 65.9376 12.9323 65.9376 13.5668C65.9376 14.2012 66.0229 14.767 66.1933 15.2642C66.3685 15.7614 66.6266 16.1544 66.9675 16.4432C67.3131 16.7273 67.7393 16.8693 68.2459 16.8693ZM77.5098 15.8608L77.5169 12.2315H77.9572L81.4516 8.09091H84.9246L80.23 13.5739H79.5126L77.5098 15.8608ZM74.7683 19V4.45455H77.7939V19H74.7683ZM81.5865 19L78.3763 14.2486L80.3933 12.1108L85.1305 19H81.5865ZM85.609 19V8.09091H88.6345V19H85.609ZM87.1288 6.68466C86.679 6.68466 86.2931 6.53551 85.9712 6.23722C85.6539 5.93419 85.4953 5.57197 85.4953 5.15057C85.4953 4.7339 85.6539 4.37642 85.9712 4.07812C86.2931 3.77509 86.679 3.62358 87.1288 3.62358C87.5786 3.62358 87.9622 3.77509 88.2794 4.07812C88.6014 4.37642 88.7624 4.7339 88.7624 5.15057C88.7624 5.57197 88.6014 5.93419 88.2794 6.23722C87.9622 6.53551 87.5786 6.68466 87.1288 6.68466Z" fill="#F0B100"/>
<path d="M1.12842 25.8431C1.12725 25.4577 1.23016 25.0407 1.43713 24.5921C1.65452 24.1436 1.88754 23.6949 2.13618 23.2463C2.39521 22.7871 2.62822 22.3385 2.83523 21.9004C3.05265 21.4622 3.16079 21.0557 3.15966 20.6807C3.15922 20.5348 3.12235 20.3995 3.04905 20.2747C2.98614 20.1395 2.91283 20.0095 2.82912 19.8848C2.75579 19.7496 2.68769 19.6196 2.62481 19.4948C2.5619 19.3595 2.53021 19.2138 2.52974 19.0576C2.5292 18.8805 2.59639 18.7084 2.7313 18.5413C2.87662 18.3742 3.03783 18.2904 3.21491 18.2899C3.2152 18.3836 3.22075 18.4982 3.23158 18.6336C3.24237 18.7585 3.26359 18.8835 3.29521 19.0084C3.33726 19.1332 3.3949 19.2476 3.46813 19.3516C3.54133 19.4451 3.64049 19.5125 3.76562 19.5538C3.86893 19.2722 4.02408 18.9072 4.23105 18.4586C4.44841 17.9997 4.70215 17.5145 4.99227 17.0032C5.29277 16.4815 5.61413 15.9649 5.95633 15.4534C6.30891 14.9315 6.66687 14.4617 7.03018 14.0439C7.40392 13.6261 7.77789 13.2864 8.1521 13.0249C8.52631 12.7633 8.88008 12.632 9.21341 12.631C9.46341 12.6303 9.67711 12.6817 9.85451 12.7853C10.0423 12.8889 10.1938 13.0291 10.3089 13.2058C10.424 13.3721 10.5079 13.5646 10.5607 13.7832C10.6134 14.0018 10.6401 14.2257 10.6408 14.4548C10.6434 15.2986 10.4635 16.0908 10.1011 16.8315C9.74919 17.5617 9.27719 18.209 8.68515 18.7733C8.10349 19.3271 7.4382 19.7823 6.68928 20.1387C5.94033 20.4847 5.17013 20.6954 4.37869 20.7707L3.95866 21.3814L2.15967 25.84C2.07687 26.0173 1.98868 26.1321 1.89508 26.1845C1.81191 26.2368 1.70261 26.2632 1.5672 26.2636C1.27553 26.2645 1.12927 26.1243 1.12842 25.8431ZM9.01337 13.6473C8.7217 13.6481 8.41995 13.7584 8.10811 13.9781C7.80666 14.1874 7.50542 14.4643 7.20438 14.809C6.90334 15.1537 6.61805 15.5399 6.34851 15.9678C6.07898 16.3957 5.84069 16.8236 5.63365 17.2513C5.42658 17.6686 5.26111 18.0649 5.13725 18.4403C5.02381 18.8156 4.96745 19.1231 4.96817 19.3627C4.96823 19.3835 4.96842 19.446 4.96874 19.5502C4.97947 19.6543 4.98489 19.722 4.98498 19.7532C5.64113 19.72 6.25518 19.5411 6.82711 19.2164C7.39902 18.8813 7.89253 18.458 8.30764 17.9463C8.72276 17.4346 9.04916 16.8659 9.28685 16.2402C9.52451 15.604 9.64239 14.9735 9.64049 14.3485C9.63961 14.0568 9.60779 13.8694 9.54504 13.7863C9.48226 13.6927 9.30503 13.6464 9.01337 13.6473ZM7.42252 24.9178C7.42239 24.8761 7.42214 24.7928 7.42176 24.6678C7.43177 24.5323 7.43671 24.4438 7.43658 24.4021C7.76761 23.6407 8.19256 22.9362 8.71143 22.2888C9.23031 21.6414 9.81711 21.0667 10.4718 20.5647C10.4927 20.5647 10.5239 20.5594 10.5655 20.5488C10.6176 20.5278 10.654 20.5173 10.6748 20.5173C10.9561 20.5164 11.1854 20.5782 11.3629 20.7027C11.5507 20.8167 11.697 20.9725 11.8018 21.1701C11.917 21.3572 11.9957 21.5705 12.0381 21.81C12.0805 22.039 12.102 22.2629 12.1027 22.4817C12.1039 22.8879 12.0114 23.3153 11.8253 23.7638C11.6391 24.2018 11.3851 24.6089 11.0634 24.9848C10.752 25.3504 10.3935 25.6535 9.98799 25.8944C9.58244 26.1248 9.16091 26.2406 8.72342 26.2419C8.28592 26.2433 7.95745 26.1297 7.738 25.9012C7.52894 25.6622 7.42378 25.3344 7.42252 24.9178ZM8.6407 24.7266C8.64104 24.8411 8.68816 24.9191 8.78203 24.9605C8.87591 25.0019 8.96972 25.0224 9.06347 25.0222C9.32388 25.0214 9.57368 24.9529 9.81285 24.8168C10.0624 24.6702 10.2806 24.4924 10.4675 24.2835C10.6647 24.0642 10.8203 23.8241 10.9341 23.5634C11.0478 23.3026 11.1044 23.0524 11.1037 22.8128C11.1033 22.6983 11.0925 22.5733 11.0713 22.4379C11.0604 22.2921 11.0288 22.1672 10.9764 22.0632C10.924 21.9488 10.8404 21.8605 10.7256 21.7984C10.6212 21.7362 10.4702 21.7262 10.2724 21.7685C10.1266 21.8002 9.96037 21.9361 9.7736 22.1762C9.58682 22.4164 9.40539 22.6982 9.22928 23.0216C9.06356 23.3346 8.9239 23.6528 8.8103 23.976C8.69666 24.2889 8.64013 24.5391 8.6407 24.7266ZM16.1259 25.0007C16.125 24.6883 16.1866 24.4016 16.3108 24.1408C16.4454 23.8696 16.5905 23.6139 16.746 23.3739C16.9015 23.1338 17.0414 22.8938 17.1657 22.6538C17.3004 22.4138 17.3673 22.1584 17.3665 21.8876C17.3663 21.8251 17.3609 21.7522 17.3502 21.6689C17.3499 21.5751 17.3392 21.4866 17.3182 21.4034C17.3075 21.3201 17.276 21.2525 17.2238 21.2005C17.1819 21.1382 17.1246 21.1071 17.0516 21.1073C17.0412 21.1073 17.0204 21.1126 16.9892 21.1231C16.9684 21.1232 16.958 21.1284 16.958 21.1388C16.8128 21.3372 16.6363 21.5617 16.4288 21.8123C16.2316 22.0525 16.0188 22.2927 15.7903 22.533C15.5619 22.7733 15.3386 23.0031 15.1205 23.2225C14.9025 23.442 14.7051 23.6248 14.5285 23.7712C14.4038 23.8862 14.2324 24.0429 14.0143 24.2415C13.8065 24.4401 13.5936 24.6386 13.3754 24.8372C13.1677 25.0253 12.9807 25.1926 12.8144 25.3389C12.6586 25.4852 12.5703 25.5584 12.5495 25.5585L11.8289 24.9513C11.9226 24.951 12.0163 24.9299 12.11 24.8879C12.1932 24.846 12.2763 24.7989 12.3595 24.7465C12.9833 24.328 13.5443 23.8471 14.0427 23.3039C14.5514 22.7607 15.0497 22.1759 15.5373 21.5494C15.5581 21.5181 15.6099 21.4294 15.6928 21.2833C15.7861 21.1268 15.8845 20.9546 15.9881 20.7668C16.0917 20.5685 16.1953 20.3755 16.2988 20.1877C16.4024 19.9895 16.4801 19.833 16.5318 19.7182C16.5939 19.5826 16.63 19.4732 16.6402 19.3898C16.6608 19.3064 16.6762 19.2438 16.6865 19.2021C16.7072 19.15 16.7383 19.1134 16.7799 19.0925C16.8215 19.0715 16.91 19.0608 17.0454 19.0604C17.0663 19.0604 17.1132 19.0654 17.1861 19.0756C17.2695 19.0858 17.3216 19.0961 17.3425 19.1064C17.4787 19.3872 17.5993 19.6369 17.7041 19.8553C17.8089 20.0738 17.8981 20.2818 17.9716 20.4795C18.0451 20.6668 18.0978 20.8593 18.1296 21.0572C18.1719 21.2549 18.1934 21.4736 18.1941 21.7132C18.0597 22.0574 17.9098 22.412 17.7442 22.7771C17.5786 23.1318 17.439 23.4707 17.3254 23.794C17.2118 24.1172 17.1398 24.4091 17.1093 24.6696C17.0893 24.9301 17.1472 25.1383 17.2831 25.2941C17.4294 25.4395 17.6692 25.5169 18.0025 25.5263C18.3463 25.5357 18.8304 25.4457 19.4549 25.2563C19.6218 25.3391 19.6377 25.4432 19.5027 25.5686C19.3676 25.6836 19.1596 25.7936 18.8787 25.8987C18.6082 26.0036 18.3063 26.0931 17.9732 26.167C17.6505 26.2305 17.3797 26.247 17.1609 26.2164C16.963 26.217 16.7962 26.1862 16.6606 26.1241C16.5354 26.0516 16.4309 25.9582 16.3472 25.8438C16.274 25.7295 16.2163 25.5994 16.1742 25.4537C16.1425 25.308 16.1264 25.157 16.1259 25.0007ZM18.6719 24.6805C18.6709 24.3784 18.7273 24.0762 18.841 23.7738C18.9546 23.4713 19.0892 23.1741 19.2445 22.8819C19.3999 22.5794 19.5552 22.282 19.7106 21.9899C19.8764 21.6977 20.0005 21.4109 20.083 21.1294C19.8854 21.2445 19.7137 21.3128 19.568 21.334C19.4326 21.3449 19.2659 21.3506 19.068 21.3512C19.0472 21.3513 18.9795 21.3515 18.8649 21.3518C18.7607 21.3417 18.693 21.3367 18.6617 21.3368C18.7235 21.1074 18.8375 20.904 19.0036 20.7264C19.1697 20.5384 19.3567 20.3816 19.5647 20.2559C19.783 20.1199 20.0067 20.0098 20.2356 19.9258C20.4749 19.8313 20.6882 19.7577 20.8755 19.7051C21.1865 19.2146 21.4403 18.7242 21.6367 18.234C21.8331 17.7334 22.0295 17.2484 22.226 16.7791C22.4329 16.2993 22.6711 15.8455 22.9407 15.4175C23.2206 14.9792 23.5944 14.577 24.062 14.211L24.1419 14.8045L22.2027 19.3886C22.3172 19.357 22.4577 19.3253 22.6243 19.2935C22.7909 19.2618 22.9574 19.23 23.124 19.1983C23.301 19.1665 23.4676 19.1399 23.6238 19.1186C23.7903 19.0869 23.9309 19.0552 24.0454 19.0236C24.0558 19.0236 24.087 19.0235 24.1391 19.0233C24.1912 19.0127 24.2328 19.0074 24.2641 19.0073C24.4099 19.0069 24.5298 19.0325 24.6237 19.0843C24.7176 19.1361 24.796 19.2505 24.8591 19.4274C24.1514 19.6379 23.5114 19.8585 22.9392 20.0895C22.367 20.3204 21.8679 20.6239 21.442 21.0002C21.0264 21.3661 20.6841 21.8359 20.415 22.4096C20.1563 22.9729 19.9762 23.6974 19.8747 24.5831C19.8753 24.7706 19.8862 24.9425 19.9075 25.0987C19.9288 25.2548 20.0593 25.3482 20.299 25.3787C20.5386 25.378 20.7624 25.3304 20.9704 25.2361C21.1785 25.1417 21.3813 25.0421 21.5789 24.9373C21.7765 24.8222 21.9741 24.7174 22.1717 24.623C22.3797 24.5287 22.6036 24.4811 22.8431 24.4804C22.8439 24.7304 22.7352 24.9599 22.5171 25.1689C22.299 25.3779 22.0339 25.561 21.7219 25.7182C21.4203 25.8753 21.1081 25.9961 20.7855 26.0804C20.4628 26.1647 20.1973 26.2072 19.989 26.2078C19.7807 26.2084 19.593 26.1673 19.4261 26.0845C19.2592 26.0017 19.1182 25.8927 19.0032 25.7577C18.8986 25.6121 18.8148 25.4457 18.7517 25.2584C18.6991 25.0711 18.6725 24.8784 18.6719 24.6805ZM19.1603 31.1635C19.7436 31.1617 20.2743 30.9934 20.7525 30.6586C21.2306 30.3238 21.6617 29.9059 22.0456 29.4047C22.4295 28.914 22.7612 28.3869 23.0408 27.8236C23.3204 27.2706 23.548 26.7699 23.7237 26.3215C23.7961 26.1338 23.889 25.8783 24.0027 25.555C24.1162 25.2213 24.2246 24.8981 24.3278 24.5853C24.4414 24.262 24.5343 23.9753 24.6065 23.725C24.6891 23.4748 24.7303 23.3288 24.7302 23.2872L24.73 23.2247C24.5524 23.0794 24.3752 23.0278 24.1982 23.07C24.0213 23.1018 23.8495 23.1544 23.6831 23.2278C23.527 23.2908 23.3813 23.3329 23.246 23.3542C23.1106 23.365 22.9905 23.2716 22.8858 23.074C22.8852 22.8969 22.9317 22.7562 23.0251 22.6517C23.1185 22.5473 23.2381 22.4636 23.3837 22.4006C23.5294 22.3377 23.6907 22.2903 23.8677 22.2585C24.0446 22.2267 24.2164 22.1898 24.383 22.1476C24.5495 22.1054 24.7004 22.0477 24.8356 21.9743C24.9707 21.901 25.0694 21.7965 25.1315 21.6609L26.7298 18.0155C26.8643 17.7234 27.051 17.452 27.2898 17.2012C27.5286 16.9401 27.7988 16.7205 28.1004 16.5425C28.4019 16.3645 28.7192 16.223 29.0522 16.1178C29.3852 16.0126 29.708 15.9595 30.0205 15.9586C30.4684 15.9572 30.776 16.0761 30.9434 16.3152C31.1108 16.5542 31.1952 16.9134 31.1967 17.3925C31.197 17.4863 31.1609 17.6062 31.0884 17.7522C31.0264 17.8983 30.9434 18.0391 30.8397 18.1749C30.7359 18.3106 30.6217 18.4255 30.497 18.5197C30.3723 18.6138 30.2526 18.661 30.138 18.6614C30.1376 18.526 30.1633 18.4009 30.215 18.2861C30.2667 18.161 30.3184 18.041 30.3702 17.9263C30.4323 17.8115 30.4893 17.6968 30.541 17.582C30.5927 17.4569 30.6184 17.3214 30.6179 17.1755C30.6174 17.0089 30.6014 16.8683 30.5698 16.7538C30.5382 16.6393 30.4078 16.5824 30.1786 16.5831C29.8765 16.584 29.5695 16.6631 29.2575 16.8203C28.9558 16.967 28.6596 17.1711 28.3687 17.4324C28.0882 17.6832 27.8182 17.9757 27.5588 18.3098C27.3098 18.6335 27.0921 18.9675 26.9056 19.3118C26.7296 19.6561 26.5848 20.0003 26.4712 20.3444C26.3681 20.678 26.3169 20.9803 26.3177 21.2511C26.3178 21.2719 26.3179 21.3084 26.3181 21.3605C26.3286 21.4021 26.3339 21.4333 26.334 21.4542C26.5317 21.3911 26.7554 21.3175 27.0052 21.2334C27.2654 21.1493 27.5308 21.0755 27.8014 21.0122C28.0824 20.9384 28.3583 20.8803 28.629 20.8378C28.9101 20.7849 29.1756 20.7581 29.4256 20.7573C29.4261 20.924 29.3433 21.0753 29.177 21.2112C29.0108 21.3471 28.7976 21.4727 28.5375 21.5881C28.2879 21.7035 28.007 21.8137 27.6948 21.9188C27.393 22.0239 27.1069 22.1289 26.8363 22.2339C26.5658 22.3285 26.3265 22.4334 26.1186 22.5486C25.921 22.6533 25.7963 22.7631 25.7445 22.8778C25.6934 23.1905 25.5801 23.6231 25.4047 24.1757C25.2397 24.7283 25.0228 25.328 24.7539 25.9746C24.4851 26.6213 24.1745 27.2784 23.8224 27.9462C23.4807 28.6139 23.1075 29.2192 22.7029 29.7621C22.2879 30.305 21.8569 30.749 21.4101 31.0941C20.9528 31.4393 20.4845 31.6126 20.0054 31.614C19.9429 31.6142 19.8647 31.6092 19.771 31.5991C19.6668 31.589 19.5729 31.5685 19.4895 31.5375C19.3957 31.5065 19.3174 31.4599 19.2547 31.3975C19.192 31.3352 19.1605 31.2572 19.1603 31.1635ZM30.2349 24.8486C30.2348 24.8069 30.2345 24.7236 30.2342 24.5986C30.2442 24.4632 30.2491 24.3746 30.249 24.3329C30.58 23.5715 31.005 22.8671 31.5238 22.2197C32.0427 21.5723 32.6295 20.9976 33.2842 20.4956C33.3051 20.4955 33.3363 20.4902 33.3779 20.4797C33.43 20.4587 33.4664 20.4482 33.4872 20.4481C33.7685 20.4473 33.9978 20.5091 34.1753 20.6335C34.3631 20.7475 34.5094 20.9033 34.6142 21.1009C34.7294 21.2881 34.8081 21.5014 34.8505 21.7409C34.8929 21.9699 34.9144 22.1938 34.9151 22.4125C34.9163 22.8188 34.8238 23.2461 34.6377 23.6946C34.4515 24.1327 34.1975 24.5397 33.8758 24.9157C33.5644 25.2812 33.2059 25.5844 32.8004 25.8252C32.3948 26.0556 31.9733 26.1715 31.5358 26.1728C31.0983 26.1741 30.7698 26.0605 30.5504 25.832C30.3413 25.5931 30.2362 25.2653 30.2349 24.8486ZM31.4531 24.6574C31.4534 24.772 31.5006 24.85 31.5944 24.8914C31.6883 24.9327 31.7821 24.9533 31.8759 24.953C32.1363 24.9522 32.3861 24.8838 32.6252 24.7476C32.8748 24.601 33.093 24.4233 33.2799 24.2144C33.4771 23.995 33.6327 23.755 33.7465 23.4942C33.8602 23.2334 33.9168 22.9833 33.9161 22.7437C33.9157 22.6291 33.9049 22.5041 33.8837 22.3688C33.8728 22.223 33.8412 22.0981 33.7888 21.9941C33.7363 21.8796 33.6527 21.7914 33.538 21.7292C33.4336 21.667 33.2825 21.6571 33.0848 21.6993C32.939 21.731 32.7728 21.8669 32.586 22.1071C32.3992 22.3472 32.2178 22.629 32.0417 22.9525C31.876 23.2655 31.7363 23.5836 31.6227 23.9069C31.5091 24.2197 31.4525 24.4699 31.4531 24.6574ZM35.4064 24.7236C35.4062 24.6506 35.4111 24.5413 35.4211 24.3954C35.4414 24.2391 35.4618 24.088 35.4822 23.9421C35.5026 23.7962 35.523 23.6659 35.5435 23.5513C35.564 23.4262 35.5846 23.348 35.6053 23.3167L38.4318 17.6206C38.4732 17.5371 38.551 17.4223 38.6651 17.2761C38.7897 17.1195 38.9194 16.9629 39.0543 16.8062C39.1997 16.6391 39.3398 16.4876 39.4748 16.3518C39.6202 16.2055 39.7397 16.0906 39.8332 16.007C39.9061 16.0276 39.9583 16.0639 39.9897 16.1159C40.0211 16.1679 40.0422 16.2303 40.0528 16.3032C40.0634 16.3657 40.0636 16.4282 40.0534 16.4907C40.0536 16.5532 40.0537 16.6053 40.0539 16.6469C40.054 16.699 40.0542 16.7719 40.0545 16.8657C40.0548 16.9594 40.0497 17.0063 40.0393 17.0064C39.936 17.2879 39.7756 17.6217 39.558 18.0078C39.3404 18.3939 39.0968 18.8061 38.8273 19.2444C38.5578 19.6827 38.278 20.1419 37.9878 20.622C37.7079 21.0916 37.4489 21.5611 37.2108 22.0306C36.983 22.4896 36.7916 22.9329 36.6367 23.3604C36.4921 23.788 36.4204 24.1788 36.4215 24.533C36.4221 24.7205 36.4746 24.8714 36.5791 24.9856C36.694 25.0894 36.8141 25.1828 36.9393 25.2658C37.0646 25.3487 37.1794 25.4317 37.2838 25.5147C37.3987 25.5977 37.4563 25.7121 37.4568 25.858C37.457 25.9517 37.4156 26.0248 37.3324 26.0771C37.2492 26.119 37.1503 26.1402 37.0357 26.1405C36.5982 26.1418 36.2177 26.0232 35.894 25.7846C35.5704 25.5356 35.4078 25.1819 35.4064 24.7236ZM39.3764 25.1178C39.376 24.9719 39.3912 24.8469 39.4221 24.7426C39.453 24.628 39.5099 24.482 39.5927 24.3046C39.6653 24.2002 39.7949 24.0019 39.9815 23.7097C40.1785 23.4174 40.3807 23.1095 40.5881 22.786C40.8059 22.4624 41.0081 22.1597 41.1947 21.8779C41.3917 21.5856 41.5265 21.3821 41.5991 21.2673C41.6925 21.1316 41.7651 21.0584 41.8172 21.0479C41.8693 21.0373 41.9682 21.0318 42.114 21.0313C42.2078 21.0311 42.3067 21.036 42.4109 21.0461C42.5256 21.0561 42.5987 21.1288 42.6304 21.2641C42.4856 21.6188 42.2887 21.9579 42.0397 22.2816C41.8011 22.5948 41.5624 22.908 41.3238 23.2212C41.0956 23.5344 40.8934 23.858 40.7173 24.1918C40.5412 24.5153 40.4538 24.8645 40.4549 25.2395C40.4966 25.2394 40.5591 25.2444 40.6424 25.2546C40.7362 25.2647 40.8352 25.2748 40.9394 25.2849C41.0436 25.295 41.1374 25.3051 41.2208 25.3153C41.3145 25.3254 41.3822 25.3252 41.4239 25.3147C41.4863 25.3041 41.5905 25.2829 41.7362 25.2512C41.8923 25.2091 42.0536 25.167 42.2202 25.1248C42.3971 25.0826 42.5637 25.0404 42.7198 24.9983C42.8759 24.9561 42.9852 24.9245 43.0476 24.9035C43.0477 24.9244 43.0478 24.9608 43.048 25.0129C43.0585 25.0545 43.0638 25.0858 43.0639 25.1066C43.0645 25.3149 42.9661 25.4871 42.7686 25.6231C42.5815 25.7591 42.3579 25.8692 42.0977 25.9533C41.8479 26.027 41.5877 26.0798 41.3169 26.1119C41.0566 26.1335 40.8535 26.1446 40.7076 26.145C40.5514 26.1455 40.3899 26.1303 40.2231 26.0996C40.0668 26.0584 39.9259 25.9963 39.8007 25.9134C39.6754 25.8304 39.571 25.7266 39.4872 25.6018C39.4139 25.4666 39.377 25.3053 39.3764 25.1178ZM43.8955 15.9478C44.0309 15.9474 44.1559 15.9522 44.2705 15.9623C44.3852 15.9723 44.4842 15.9981 44.5677 16.0395C44.6511 16.0809 44.719 16.1432 44.7713 16.2264C44.8237 16.3096 44.8501 16.4241 44.8505 16.5699C44.8507 16.6324 44.8509 16.7001 44.8511 16.773C44.8514 16.8459 44.8412 16.9189 44.8205 16.9919C44.8103 17.0544 44.7844 17.1118 44.7429 17.164C44.7014 17.2058 44.6338 17.2268 44.54 17.2271C44.3942 17.2275 44.2742 17.1758 44.1802 17.0719C44.0965 16.968 44.0336 16.8484 43.9916 16.7131C43.9495 16.5674 43.923 16.4217 43.9121 16.2759C43.9013 16.1301 43.8957 16.0207 43.8955 15.9478ZM43.2817 24.8091C43.2816 24.7674 43.2814 24.6841 43.281 24.5591C43.291 24.4236 43.2959 24.3351 43.2958 24.2934C43.6268 23.532 44.0518 22.8276 44.5706 22.1801C45.0895 21.5327 45.6763 20.958 46.3311 20.456C46.3519 20.456 46.3831 20.4507 46.4248 20.4401C46.4768 20.4191 46.5132 20.4086 46.534 20.4086C46.8153 20.4077 47.0446 20.4695 47.2221 20.594C47.4099 20.708 47.5563 20.8638 47.661 21.0614C47.7762 21.2485 47.8549 21.4619 47.8973 21.7013C47.9397 21.9303 47.9612 22.1542 47.9619 22.373C47.9631 22.7792 47.8706 23.2066 47.6845 23.6551C47.4983 24.0932 47.2444 24.5002 46.9226 24.8762C46.6112 25.2417 46.2527 25.5449 45.8472 25.7857C45.4416 26.0161 45.0201 26.1319 44.5826 26.1333C44.1451 26.1346 43.8167 26.021 43.5972 25.7925C43.3882 25.5535 43.283 25.2257 43.2817 24.8091ZM44.4999 24.6179C44.5003 24.7325 44.5474 24.8104 44.6412 24.8518C44.7351 24.8932 44.8289 24.9137 44.9227 24.9135C45.1831 24.9127 45.4329 24.8442 45.6721 24.7081C45.9216 24.5615 46.1398 24.3837 46.3267 24.1748C46.524 23.9555 46.6795 23.7154 46.7933 23.4547C46.9071 23.1939 46.9636 22.9437 46.9629 22.7041C46.9625 22.5896 46.9517 22.4646 46.9305 22.3292C46.9196 22.1834 46.888 22.0585 46.8356 21.9545C46.7832 21.8401 46.6996 21.7518 46.5848 21.6897C46.4804 21.6275 46.3294 21.6175 46.1316 21.6598C45.9858 21.6915 45.8196 21.8274 45.6328 22.0675C45.446 22.3077 45.2646 22.5895 45.0885 22.913C44.9228 23.226 44.7831 23.5441 44.6695 23.8674C44.5559 24.1802 44.4993 24.4304 44.4999 24.6179Z" fill="#E9E8E4"/>
</svg>
