<svg width="92" height="33" viewBox="0 0 92 33" fill="none" xmlns="http://www.w3.org/2000/svg">
<path d="M14.6307 11.7273C14.6307 13.3134 14.33 14.6629 13.7287 15.7756C13.1321 16.8883 12.3177 17.7382 11.2855 18.3253C10.258 18.9077 9.10275 19.1989 7.8196 19.1989C6.52699 19.1989 5.36695 18.9053 4.33949 18.3182C3.31203 17.7311 2.5 16.8812 1.90341 15.7685C1.30682 14.6558 1.00852 13.3087 1.00852 11.7273C1.00852 10.1411 1.30682 8.79167 1.90341 7.67898C2.5 6.56629 3.31203 5.71875 4.33949 5.13636C5.36695 4.54924 6.52699 4.25568 7.8196 4.25568C9.10275 4.25568 10.258 4.54924 11.2855 5.13636C12.3177 5.71875 13.1321 6.56629 13.7287 7.67898C14.33 8.79167 14.6307 10.1411 14.6307 11.7273ZM11.5128 11.7273C11.5128 10.6998 11.3589 9.83333 11.0511 9.12784C10.7481 8.42235 10.3196 7.88731 9.76562 7.52273C9.21165 7.15814 8.56297 6.97585 7.8196 6.97585C7.07623 6.97585 6.42756 7.15814 5.87358 7.52273C5.3196 7.88731 4.88873 8.42235 4.58097 9.12784C4.27794 9.83333 4.12642 10.6998 4.12642 11.7273C4.12642 12.7547 4.27794 13.6212 4.58097 14.3267C4.88873 15.0322 5.3196 15.5672 5.87358 15.9318C6.42756 16.2964 7.07623 16.4787 7.8196 16.4787C8.56297 16.4787 9.21165 16.2964 9.76562 15.9318C10.3196 15.5672 10.7481 15.0322 11.0511 14.3267C11.3589 13.6212 11.5128 12.7547 11.5128 11.7273ZM21.8545 8.09091V10.3636H15.2849V8.09091H21.8545ZM16.7763 5.47727H19.8019V15.6477C19.8019 15.9271 19.8445 16.1449 19.9298 16.3011C20.015 16.4527 20.1334 16.5592 20.2849 16.6207C20.4411 16.6823 20.621 16.7131 20.8246 16.7131C20.9667 16.7131 21.1087 16.7012 21.2508 16.6776C21.3928 16.6491 21.5017 16.6278 21.5775 16.6136L22.0533 18.8651C21.9018 18.9124 21.6888 18.9669 21.4141 19.0284C21.1395 19.0947 20.8057 19.1349 20.4127 19.1491C19.6835 19.1776 19.0443 19.0805 18.4951 18.858C17.9506 18.6354 17.5268 18.2898 17.2238 17.821C16.9208 17.3523 16.7716 16.7604 16.7763 16.0455V5.47727ZM26.1362 19.206C25.4401 19.206 24.8199 19.0852 24.2754 18.8438C23.7308 18.5975 23.3 18.2353 22.9827 17.7571C22.6702 17.2741 22.514 16.6728 22.514 15.9531C22.514 15.3471 22.6253 14.8381 22.8478 14.4261C23.0703 14.0142 23.3734 13.6828 23.7569 13.4318C24.1404 13.1809 24.576 12.9915 25.0637 12.8636C25.5561 12.7358 26.0722 12.6458 26.612 12.5938C27.2465 12.5275 27.7578 12.4659 28.1461 12.4091C28.5344 12.3475 28.8161 12.2576 28.9913 12.1392C29.1665 12.0208 29.254 11.8456 29.254 11.6136V11.571C29.254 11.1212 29.112 10.7732 28.8279 10.527C28.5486 10.2808 28.1508 10.1577 27.6347 10.1577C27.0902 10.1577 26.657 10.2784 26.335 10.5199C26.013 10.7566 25.8 11.0549 25.6958 11.4148L22.8975 11.1875C23.0396 10.5246 23.3189 9.9517 23.7356 9.46875C24.1522 8.98106 24.6897 8.60701 25.3478 8.34659C26.0107 8.08144 26.7777 7.94886 27.6489 7.94886C28.255 7.94886 28.835 8.01989 29.389 8.16193C29.9477 8.30398 30.4425 8.52415 30.8734 8.82244C31.309 9.12074 31.6522 9.50426 31.9032 9.97301C32.1541 10.437 32.2796 10.9934 32.2796 11.642V19H29.4103V17.4872H29.3251C29.1499 17.8281 28.9155 18.1288 28.6219 18.3892C28.3284 18.6449 27.9756 18.8461 27.5637 18.9929C27.1518 19.1349 26.6759 19.206 26.1362 19.206ZM27.0026 17.1179C27.4477 17.1179 27.8407 17.0303 28.1816 16.8551C28.5225 16.6752 28.79 16.4337 28.9842 16.1307C29.1783 15.8277 29.2754 15.4844 29.2754 15.1009V13.9432C29.1807 14.0047 29.0504 14.0616 28.8847 14.1136C28.7237 14.161 28.5415 14.206 28.3379 14.2486C28.1343 14.2865 27.9307 14.322 27.7271 14.3551C27.5235 14.3835 27.3388 14.4096 27.1731 14.4332C26.818 14.4853 26.5078 14.5682 26.2427 14.6818C25.9775 14.7955 25.7716 14.9493 25.6248 15.1435C25.478 15.3329 25.4046 15.5696 25.4046 15.8537C25.4046 16.2656 25.5538 16.5805 25.8521 16.7983C26.1551 17.0114 26.5386 17.1179 27.0026 17.1179ZM37.7126 19V4.45455H40.7879V10.456H47.0308V4.45455H50.099V19H47.0308V12.9915H40.7879V19H37.7126ZM51.7777 19V8.09091H54.8033V19H51.7777ZM53.2976 6.68466C52.8478 6.68466 52.4619 6.53551 52.1399 6.23722C51.8227 5.93419 51.6641 5.57197 51.6641 5.15057C51.6641 4.7339 51.8227 4.37642 52.1399 4.07812C52.4619 3.77509 52.8478 3.62358 53.2976 3.62358C53.7474 3.62358 54.1309 3.77509 54.4482 4.07812C54.7701 4.37642 54.9311 4.7339 54.9311 5.15057C54.9311 5.57197 54.7701 5.93419 54.4482 6.23722C54.1309 6.53551 53.7474 6.68466 53.2976 6.68466ZM56.4269 19V8.09091H59.3602V9.99432H59.4738C59.6727 9.31723 60.0065 8.80587 60.4752 8.46023C60.944 8.10985 61.4837 7.93466 62.0945 7.93466C62.246 7.93466 62.4094 7.94413 62.5846 7.96307C62.7598 7.98201 62.9137 8.00805 63.0462 8.04119V10.7259C62.9042 10.6832 62.7077 10.6454 62.4567 10.6122C62.2058 10.5791 61.9762 10.5625 61.7678 10.5625C61.3228 10.5625 60.925 10.6596 60.5746 10.8537C60.229 11.0431 59.9544 11.3082 59.7508 11.6491C59.5519 11.9901 59.4525 12.383 59.4525 12.8281V19H56.4269ZM68.2317 19.2131C67.1285 19.2131 66.1744 18.9787 65.3695 18.5099C64.5693 18.0365 63.9514 17.3783 63.5158 16.5355C63.0802 15.688 62.8624 14.7055 62.8624 13.5881C62.8624 12.4612 63.0802 11.4763 63.5158 10.6335C63.9514 9.78598 64.5693 9.12784 65.3695 8.65909C66.1744 8.18561 67.1285 7.94886 68.2317 7.94886C69.3349 7.94886 70.2866 8.18561 71.0868 8.65909C71.8917 9.12784 72.512 9.78598 72.9476 10.6335C73.3832 11.4763 73.601 12.4612 73.601 13.5881C73.601 14.7055 73.3832 15.688 72.9476 16.5355C72.512 17.3783 71.8917 18.0365 71.0868 18.5099C70.2866 18.9787 69.3349 19.2131 68.2317 19.2131ZM68.2459 16.8693C68.7478 16.8693 69.1668 16.7273 69.503 16.4432C69.8392 16.1544 70.0925 15.7614 70.2629 15.2642C70.4381 14.767 70.5257 14.2012 70.5257 13.5668C70.5257 12.9323 70.4381 12.3665 70.2629 11.8693C70.0925 11.3722 69.8392 10.9792 69.503 10.6903C69.1668 10.4015 68.7478 10.2571 68.2459 10.2571C67.7393 10.2571 67.3131 10.4015 66.9675 10.6903C66.6266 10.9792 66.3685 11.3722 66.1933 11.8693C66.0229 12.3665 65.9376 12.9323 65.9376 13.5668C65.9376 14.2012 66.0229 14.767 66.1933 15.2642C66.3685 15.7614 66.6266 16.1544 66.9675 16.4432C67.3131 16.7273 67.7393 16.8693 68.2459 16.8693ZM77.5098 15.8608L77.5169 12.2315H77.9572L81.4516 8.09091H84.9246L80.23 13.5739H79.5126L77.5098 15.8608ZM74.7683 19V4.45455H77.7939V19H74.7683ZM81.5865 19L78.3763 14.2486L80.3933 12.1108L85.1305 19H81.5865ZM85.609 19V8.09091H88.6345V19H85.609ZM87.1288 6.68466C86.679 6.68466 86.2931 6.53551 85.9712 6.23722C85.6539 5.93419 85.4953 5.57197 85.4953 5.15057C85.4953 4.7339 85.6539 4.37642 85.9712 4.07812C86.2931 3.77509 86.679 3.62358 87.1288 3.62358C87.5786 3.62358 87.9622 3.77509 88.2794 4.07812C88.6014 4.37642 88.7624 4.7339 88.7624 5.15057C88.7624 5.57197 88.6014 5.93419 88.2794 6.23722C87.9622 6.53551 87.5786 6.68466 87.1288 6.68466Z" fill="#F0B100"/>
<path d="M1.12842 25.8477C1.12725 25.4623 1.23016 25.0453 1.43713 24.5968C1.65452 24.1482 1.88754 23.6996 2.13618 23.2509C2.39521 22.7918 2.62822 22.3431 2.83523 21.905C3.05265 21.4669 3.16079 21.0603 3.15966 20.6853C3.15922 20.5394 3.12235 20.4041 3.04905 20.2794C2.98614 20.1441 2.91283 20.0141 2.82912 19.8894C2.75579 19.7542 2.68769 19.6242 2.62481 19.4994C2.5619 19.3642 2.53021 19.2184 2.52974 19.0622C2.5292 18.8851 2.59639 18.713 2.7313 18.5459C2.87662 18.3788 3.03783 18.295 3.21491 18.2945C3.2152 18.3882 3.22075 18.5028 3.23158 18.6382C3.24237 18.7631 3.26359 18.8881 3.29521 19.013C3.33726 19.1379 3.3949 19.2523 3.46813 19.3562C3.54133 19.4497 3.64049 19.5171 3.76562 19.5584C3.86893 19.2769 4.02408 18.9118 4.23105 18.4633C4.44841 18.0043 4.70215 17.5191 4.99227 17.0078C5.29277 16.4861 5.61413 15.9695 5.95633 15.458C6.30891 14.9361 6.66687 14.4663 7.03018 14.0485C7.40392 13.6307 7.77789 13.291 8.1521 13.0295C8.52631 12.7679 8.88008 12.6367 9.21341 12.6356C9.46341 12.6349 9.67711 12.6863 9.85451 12.79C10.0423 12.8935 10.1938 13.0337 10.3089 13.2104C10.424 13.3768 10.5079 13.5692 10.5607 13.7878C10.6134 14.0064 10.6401 14.2303 10.6408 14.4594C10.6434 15.3032 10.4635 16.0954 10.1011 16.8361C9.74919 17.5663 9.27719 18.2136 8.68515 18.7779C8.10349 19.3317 7.4382 19.7869 6.68928 20.1433C5.94033 20.4893 5.17013 20.7 4.37869 20.7753L3.95866 21.386L2.15967 25.8446C2.07687 26.0219 1.98868 26.1368 1.89508 26.1891C1.81191 26.2415 1.70261 26.2678 1.5672 26.2683C1.27553 26.2691 1.12927 26.129 1.12842 25.8477ZM9.01337 13.6519C8.7217 13.6528 8.41995 13.7631 8.10811 13.9827C7.80666 14.192 7.50542 14.469 7.20438 14.8136C6.90334 15.1583 6.61805 15.5446 6.34851 15.9725C6.07898 16.4004 5.84069 16.8282 5.63365 17.2559C5.42658 17.6732 5.26111 18.0695 5.13725 18.4449C5.02381 18.8202 4.96745 19.1277 4.96817 19.3673C4.96823 19.3881 4.96842 19.4506 4.96874 19.5548C4.97947 19.6589 4.98489 19.7266 4.98498 19.7579C5.64113 19.7246 6.25518 19.5457 6.82711 19.221C7.39902 18.886 7.89253 18.4626 8.30764 17.9509C8.72276 17.4392 9.04916 16.8705 9.28685 16.2448C9.52451 15.6087 9.64239 14.9781 9.64049 14.3531C9.63961 14.0614 9.60779 13.874 9.54504 13.7909C9.48226 13.6973 9.30503 13.651 9.01337 13.6519ZM7.42252 24.9224C7.42239 24.8807 7.42214 24.7974 7.42176 24.6724C7.43177 24.5369 7.43671 24.4484 7.43658 24.4067C7.76761 23.6453 8.19256 22.9409 8.71143 22.2935C9.23031 21.646 9.81711 21.0714 10.4718 20.5694C10.4927 20.5693 10.5239 20.564 10.5655 20.5535C10.6176 20.5325 10.654 20.5219 10.6748 20.5219C10.9561 20.521 11.1854 20.5828 11.3629 20.7073C11.5507 20.8213 11.697 20.9771 11.8018 21.1747C11.917 21.3619 11.9957 21.5752 12.0381 21.8146C12.0805 22.0437 12.102 22.2676 12.1027 22.4863C12.1039 22.8926 12.0114 23.3199 11.8253 23.7684C11.6391 24.2065 11.3851 24.6135 11.0634 24.9895C10.752 25.355 10.3935 25.6582 9.98799 25.899C9.58244 26.1294 9.16091 26.2452 8.72342 26.2466C8.28592 26.2479 7.95745 26.1343 7.738 25.9058C7.52894 25.6669 7.42378 25.339 7.42252 24.9224ZM8.6407 24.7312C8.64104 24.8458 8.68816 24.9237 8.78203 24.9651C8.87591 25.0065 8.96972 25.0271 9.06347 25.0268C9.32388 25.026 9.57368 24.9575 9.81285 24.8214C10.0624 24.6748 10.2806 24.497 10.4675 24.2881C10.6647 24.0688 10.8203 23.8287 10.9341 23.568C11.0478 23.3072 11.1044 23.057 11.1037 22.8175C11.1033 22.7029 11.0925 22.5779 11.0713 22.4426C11.0604 22.2968 11.0288 22.1719 10.9764 22.0678C10.924 21.9534 10.8404 21.8651 10.7256 21.803C10.6212 21.7408 10.4702 21.7308 10.2724 21.7731C10.1266 21.8048 9.96037 21.9407 9.7736 22.1809C9.58682 22.421 9.40539 22.7028 9.22928 23.0263C9.06356 23.3393 8.9239 23.6574 8.8103 23.9807C8.69666 24.2935 8.64013 24.5437 8.6407 24.7312ZM16.1259 25.0054C16.125 24.6929 16.1866 24.4062 16.3108 24.1454C16.4454 23.8742 16.5905 23.6185 16.746 23.3785C16.9015 23.1384 17.0414 22.8984 17.1657 22.6585C17.3004 22.4185 17.3673 22.1631 17.3665 21.8922C17.3663 21.8297 17.3609 21.7568 17.3502 21.6735C17.3499 21.5798 17.3392 21.4913 17.3182 21.408C17.3075 21.3247 17.276 21.2571 17.2238 21.2052C17.1819 21.1428 17.1246 21.1117 17.0516 21.1119C17.0412 21.112 17.0204 21.1172 16.9892 21.1277C16.9684 21.1278 16.958 21.133 16.958 21.1435C16.8128 21.3418 16.6363 21.5663 16.4288 21.8169C16.2316 22.0571 16.0188 22.2974 15.7903 22.5376C15.5619 22.7779 15.3386 23.0077 15.1205 23.2272C14.9025 23.4466 14.7051 23.6295 14.5285 23.7758C14.4038 23.8908 14.2324 24.0476 14.0143 24.2461C13.8065 24.4447 13.5936 24.6433 13.3754 24.8418C13.1677 25.03 12.9807 25.1972 12.8144 25.3435C12.6586 25.4898 12.5703 25.563 12.5495 25.5631L11.8289 24.9559C11.9226 24.9556 12.0163 24.9345 12.11 24.8925C12.1932 24.8506 12.2763 24.8035 12.3595 24.7512C12.9833 24.3326 13.5443 23.8517 14.0427 23.3086C14.5514 22.7653 15.0497 22.1805 15.5373 21.554C15.5581 21.5227 15.6099 21.434 15.6928 21.2879C15.7861 21.1314 15.8845 20.9592 15.9881 20.7714C16.0917 20.5732 16.1953 20.3801 16.2988 20.1923C16.4024 19.9941 16.4801 19.8376 16.5318 19.7229C16.5939 19.5873 16.63 19.4778 16.6402 19.3944C16.6608 19.311 16.6762 19.2485 16.6865 19.2068C16.7072 19.1546 16.7383 19.1181 16.7799 19.0971C16.8215 19.0762 16.91 19.0655 17.0454 19.0651C17.0663 19.065 17.1132 19.0701 17.1861 19.0803C17.2695 19.0904 17.3216 19.1007 17.3425 19.111C17.4787 19.3919 17.5993 19.6415 17.7041 19.8599C17.8089 20.0784 17.8981 20.2864 17.9716 20.4841C18.0451 20.6714 18.0978 20.864 18.1296 21.0618C18.1719 21.2596 18.1934 21.4783 18.1941 21.7178C18.0597 22.062 17.9098 22.4166 17.7442 22.7817C17.5786 23.1364 17.439 23.4753 17.3254 23.7986C17.2118 24.1219 17.1398 24.4138 17.1093 24.6743C17.0893 24.9347 17.1472 25.1429 17.2831 25.2987C17.4294 25.4441 17.6692 25.5215 18.0025 25.5309C18.3463 25.5403 18.8304 25.4503 19.4549 25.2609C19.6218 25.3437 19.6377 25.4479 19.5027 25.5733C19.3676 25.6883 19.1596 25.7983 18.8787 25.9033C18.6082 26.0083 18.3063 26.0977 17.9732 26.1717C17.6505 26.2351 17.3797 26.2516 17.1609 26.221C16.963 26.2216 16.7962 26.1908 16.6606 26.1288C16.5354 26.0562 16.4309 25.9628 16.3472 25.8485C16.274 25.7341 16.2163 25.6041 16.1742 25.4584C16.1425 25.3126 16.1264 25.1616 16.1259 25.0054ZM18.6719 24.6852C18.6709 24.3831 18.7273 24.0808 18.841 23.7784C18.9546 23.476 19.0892 23.1787 19.2445 22.8865C19.3999 22.584 19.5552 22.2866 19.7106 21.9945C19.8764 21.7023 20.0005 21.4155 20.083 21.134C19.8854 21.2492 19.7137 21.3174 19.568 21.3387C19.4326 21.3495 19.2659 21.3552 19.068 21.3558C19.0472 21.3559 18.9795 21.3561 18.8649 21.3564C18.7607 21.3463 18.693 21.3413 18.6617 21.3414C18.7235 21.1121 18.8375 20.9086 19.0036 20.731C19.1697 20.543 19.3567 20.3862 19.5647 20.2606C19.783 20.1245 20.0067 20.0144 20.2356 19.9304C20.4749 19.8359 20.6882 19.7624 20.8755 19.7097C21.1865 19.2192 21.4403 18.7288 21.6367 18.2386C21.8331 17.738 22.0295 17.2531 22.226 16.7837C22.4329 16.3039 22.6711 15.8501 22.9407 15.4222C23.2206 14.9838 23.5944 14.5816 24.062 14.2156L24.1419 14.8092L22.2027 19.3932C22.3172 19.3616 22.4577 19.3299 22.6243 19.2981C22.7909 19.2664 22.9574 19.2346 23.124 19.2029C23.301 19.1711 23.4676 19.1446 23.6238 19.1232C23.7903 19.0915 23.9309 19.0598 24.0454 19.0282C24.0558 19.0282 24.087 19.0281 24.1391 19.0279C24.1912 19.0174 24.2328 19.012 24.2641 19.0119C24.4099 19.0115 24.5298 19.0372 24.6237 19.089C24.7176 19.1408 24.796 19.2551 24.8591 19.432C24.1514 19.6425 23.5114 19.8632 22.9392 20.0941C22.367 20.325 21.8679 20.6286 21.442 21.0049C21.0264 21.3707 20.6841 21.8405 20.415 22.4142C20.1563 22.9775 19.9762 23.702 19.8747 24.5878C19.8753 24.7753 19.8862 24.9471 19.9075 25.1033C19.9288 25.2595 20.0593 25.3528 20.299 25.3834C20.5386 25.3826 20.7624 25.3351 20.9704 25.2407C21.1785 25.1463 21.3813 25.0467 21.5789 24.942C21.7765 24.8268 21.9741 24.722 22.1717 24.6277C22.3797 24.5333 22.6036 24.4857 22.8431 24.485C22.8439 24.735 22.7352 24.9645 22.5171 25.1735C22.299 25.3825 22.0339 25.5656 21.7219 25.7228C21.4203 25.88 21.1081 26.0007 20.7855 26.085C20.4628 26.1693 20.1973 26.2118 19.989 26.2124C19.7807 26.2131 19.593 26.172 19.4261 26.0891C19.2592 26.0063 19.1182 25.8973 19.0032 25.7623C18.8986 25.6168 18.8148 25.4503 18.7517 25.263C18.6991 25.0757 18.6725 24.8831 18.6719 24.6852ZM19.1603 31.1681C19.7436 31.1663 20.2743 30.998 20.7525 30.6633C21.2306 30.3285 21.6617 29.9105 22.0456 29.4093C22.4295 28.9186 22.7612 28.3915 23.0408 27.8282C23.3204 27.2752 23.548 26.7746 23.7237 26.3261C23.7961 26.1384 23.889 25.8829 24.0027 25.5596C24.1162 25.2259 24.2246 24.9027 24.3278 24.5899C24.4414 24.2666 24.5343 23.9799 24.6065 23.7297C24.6891 23.4794 24.7303 23.3335 24.7302 23.2918L24.73 23.2293C24.5524 23.084 24.3752 23.0324 24.1982 23.0746C24.0213 23.1064 23.8495 23.159 23.6831 23.2325C23.527 23.2954 23.3813 23.3375 23.246 23.3588C23.1106 23.3696 22.9905 23.2762 22.8858 23.0786C22.8852 22.9015 22.9317 22.7608 23.0251 22.6563C23.1185 22.5519 23.2381 22.4682 23.3837 22.4052C23.5294 22.3423 23.6907 22.2949 23.8677 22.2631C24.0446 22.2314 24.2164 22.1944 24.383 22.1522C24.5495 22.11 24.7004 22.0523 24.8356 21.979C24.9707 21.9056 25.0694 21.8012 25.1315 21.6656L26.7298 18.0201C26.8643 17.728 27.051 17.4566 27.2898 17.2059C27.5286 16.9447 27.7988 16.7252 28.1004 16.5472C28.4019 16.3692 28.7192 16.2276 29.0522 16.1224C29.3852 16.0172 29.708 15.9642 30.0205 15.9632C30.4684 15.9619 30.776 16.0807 30.9434 16.3198C31.1108 16.5589 31.1952 16.918 31.1967 17.3972C31.197 17.4909 31.1609 17.6108 31.0884 17.7569C31.0264 17.9029 30.9434 18.0438 30.8397 18.1795C30.7359 18.3152 30.6217 18.4302 30.497 18.5243C30.3723 18.6184 30.2526 18.6656 30.138 18.666C30.1376 18.5306 30.1633 18.4055 30.215 18.2908C30.2667 18.1656 30.3184 18.0457 30.3702 17.9309C30.4323 17.8161 30.4893 17.7014 30.541 17.5866C30.5927 17.4615 30.6184 17.326 30.6179 17.1802C30.6174 17.0135 30.6014 16.8729 30.5698 16.7584C30.5382 16.6439 30.4078 16.587 30.1786 16.5877C29.8765 16.5887 29.5695 16.6677 29.2575 16.8249C28.9558 16.9717 28.6596 17.1757 28.3687 17.437C28.0882 17.6878 27.8182 17.9803 27.5588 18.3144C27.3098 18.6381 27.0921 18.9721 26.9056 19.3164C26.7296 19.6607 26.5848 20.0049 26.4712 20.349C26.3681 20.6826 26.3169 20.9849 26.3177 21.2557C26.3178 21.2765 26.3179 21.313 26.3181 21.3651C26.3286 21.4067 26.3339 21.438 26.334 21.4588C26.5317 21.3957 26.7554 21.3221 27.0052 21.238C27.2654 21.1539 27.5308 21.0802 27.8014 21.0168C28.0824 20.9431 28.3583 20.8849 28.629 20.8425C28.9101 20.7895 29.1756 20.7627 29.4256 20.7619C29.4261 20.9286 29.3433 21.0799 29.177 21.2158C29.0108 21.3517 28.7976 21.4774 28.5375 21.5927C28.2879 21.7081 28.007 21.8183 27.6948 21.9234C27.393 22.0285 27.1069 22.1335 26.8363 22.2385C26.5658 22.3331 26.3265 22.438 26.1186 22.5532C25.921 22.658 25.7963 22.7677 25.7445 22.8825C25.6934 23.1951 25.5801 23.6278 25.4047 24.1804C25.2397 24.733 25.0228 25.3326 24.7539 25.9792C24.4851 26.6259 24.1745 27.2831 23.8224 27.9508C23.4807 28.6185 23.1075 29.2238 22.7029 29.7667C22.2879 30.3096 21.8569 30.7537 21.4101 31.0988C20.9528 31.4439 20.4845 31.6172 20.0054 31.6186C19.9429 31.6188 19.8647 31.6139 19.771 31.6037C19.6668 31.5936 19.5729 31.5731 19.4895 31.5421C19.3957 31.5111 19.3174 31.4645 19.2547 31.4022C19.192 31.3399 19.1605 31.2618 19.1603 31.1681ZM30.2349 24.8532C30.2348 24.8116 30.2345 24.7282 30.2342 24.6032C30.2442 24.4678 30.2491 24.3792 30.249 24.3376C30.58 23.5761 31.005 22.8717 31.5238 22.2243C32.0427 21.5769 32.6295 21.0022 33.2842 20.5002C33.3051 20.5002 33.3363 20.4949 33.3779 20.4843C33.43 20.4633 33.4664 20.4528 33.4872 20.4527C33.7685 20.4519 33.9978 20.5137 34.1753 20.6381C34.3631 20.7522 34.5094 20.908 34.6142 21.1056C34.7294 21.2927 34.8081 21.506 34.8505 21.7455C34.8929 21.9745 34.9144 22.1984 34.9151 22.4172C34.9163 22.8234 34.8238 23.2508 34.6377 23.6993C34.4515 24.1373 34.1975 24.5443 33.8758 24.9203C33.5644 25.2859 33.2059 25.589 32.8004 25.8298C32.3948 26.0602 31.9733 26.1761 31.5358 26.1774C31.0983 26.1787 30.7698 26.0652 30.5504 25.8367C30.3413 25.5977 30.2362 25.2699 30.2349 24.8532ZM31.4531 24.662C31.4534 24.7766 31.5006 24.8546 31.5944 24.896C31.6883 24.9374 31.7821 24.9579 31.8759 24.9576C32.1363 24.9568 32.3861 24.8884 32.6252 24.7522C32.8748 24.6056 33.093 24.4279 33.2799 24.219C33.4771 23.9997 33.6327 23.7596 33.7465 23.4988C33.8602 23.2381 33.9168 22.9879 33.9161 22.7483C33.9157 22.6337 33.9049 22.5088 33.8837 22.3734C33.8728 22.2276 33.8412 22.1027 33.7888 21.9987C33.7363 21.8843 33.6527 21.796 33.538 21.7338C33.4336 21.6716 33.2825 21.6617 33.0848 21.704C32.939 21.7356 32.7728 21.8716 32.586 22.1117C32.3992 22.3519 32.2178 22.6337 32.0417 22.9571C31.876 23.2701 31.7363 23.5883 31.6227 23.9115C31.5091 24.2244 31.4525 24.4745 31.4531 24.662ZM35.4064 24.7282C35.4062 24.6553 35.4111 24.5459 35.4211 24.4C35.4414 24.2437 35.4618 24.0926 35.4822 23.9467C35.5026 23.8008 35.523 23.6705 35.5435 23.5559C35.564 23.4308 35.5846 23.3526 35.6053 23.3213L38.4318 17.6252C38.4732 17.5418 38.551 17.4269 38.6651 17.2808C38.7897 17.1241 38.9194 16.9675 39.0543 16.8108C39.1997 16.6437 39.3398 16.4923 39.4748 16.3564C39.6202 16.2102 39.7397 16.0952 39.8332 16.0116C39.9061 16.0322 39.9583 16.0685 39.9897 16.1205C40.0211 16.1725 40.0422 16.2349 40.0528 16.3078C40.0634 16.3703 40.0636 16.4328 40.0534 16.4953C40.0536 16.5578 40.0537 16.6099 40.0539 16.6516C40.054 16.7036 40.0542 16.7766 40.0545 16.8703C40.0548 16.9641 40.0497 17.0109 40.0393 17.011C39.936 17.2925 39.7756 17.6264 39.558 18.0124C39.3404 18.3985 39.0968 18.8107 38.8273 19.249C38.5578 19.6874 38.278 20.1465 37.9878 20.6266C37.7079 21.0962 37.4489 21.5657 37.2108 22.0352C36.983 22.4942 36.7916 22.9375 36.6367 23.3651C36.4921 23.7926 36.4204 24.1834 36.4215 24.5376C36.4221 24.7251 36.4746 24.876 36.5791 24.9903C36.694 25.0941 36.8141 25.1875 36.9393 25.2704C37.0646 25.3534 37.1794 25.4364 37.2838 25.5194C37.3987 25.6024 37.4563 25.7168 37.4568 25.8626C37.457 25.9563 37.4156 26.0294 37.3324 26.0817C37.2492 26.1236 37.1503 26.1448 37.0357 26.1451C36.5982 26.1465 36.2177 26.0278 35.894 25.7892C35.5704 25.5402 35.4078 25.1865 35.4064 24.7282ZM39.3764 25.1224C39.376 24.9766 39.3912 24.8515 39.4221 24.7473C39.453 24.6326 39.5099 24.4866 39.5927 24.3092C39.6653 24.2049 39.7949 24.0065 39.9815 23.7143C40.1785 23.422 40.3807 23.1141 40.5881 22.7906C40.8059 22.467 41.0081 22.1643 41.1947 21.8825C41.3917 21.5902 41.5265 21.3867 41.5991 21.2719C41.6925 21.1362 41.7651 21.0631 41.8172 21.0525C41.8693 21.0419 41.9682 21.0364 42.114 21.036C42.2078 21.0357 42.3067 21.0406 42.4109 21.0507C42.5256 21.0608 42.5987 21.1334 42.6304 21.2688C42.4856 21.6234 42.2887 21.9625 42.0397 22.2862C41.8011 22.5994 41.5624 22.9126 41.3238 23.2259C41.0956 23.5391 40.8934 23.8626 40.7173 24.1965C40.5412 24.5199 40.4538 24.8691 40.4549 25.2441C40.4966 25.244 40.5591 25.249 40.6424 25.2592C40.7362 25.2693 40.8352 25.2794 40.9394 25.2895C41.0436 25.2996 41.1374 25.3098 41.2208 25.3199C41.3145 25.3301 41.3822 25.3299 41.4239 25.3193C41.4863 25.3087 41.5905 25.2876 41.7362 25.2559C41.8923 25.2137 42.0536 25.1716 42.2202 25.1294C42.3971 25.0872 42.5637 25.045 42.7198 25.0029C42.8759 24.9607 42.9852 24.9292 43.0476 24.9081C43.0477 24.929 43.0478 24.9654 43.048 25.0175C43.0585 25.0592 43.0638 25.0904 43.0639 25.1112C43.0645 25.3196 42.9661 25.4917 42.7686 25.6277C42.5815 25.7637 42.3579 25.8738 42.0977 25.9579C41.8479 26.0316 41.5877 26.0845 41.3169 26.1165C41.0566 26.1381 40.8535 26.1492 40.7076 26.1496C40.5514 26.1501 40.3899 26.135 40.2231 26.1042C40.0668 26.063 39.9259 26.0009 39.8007 25.918C39.6754 25.835 39.571 25.7312 39.4872 25.6064C39.4139 25.4712 39.377 25.3099 39.3764 25.1224ZM43.8955 15.9524C44.0309 15.952 44.1559 15.9568 44.2705 15.9669C44.3852 15.977 44.4842 16.0027 44.5677 16.0441C44.6511 16.0855 44.719 16.1478 44.7713 16.231C44.8237 16.3142 44.8501 16.4287 44.8505 16.5745C44.8507 16.637 44.8509 16.7047 44.8511 16.7776C44.8514 16.8506 44.8412 16.9235 44.8205 16.9965C44.8103 17.059 44.7844 17.1164 44.7429 17.1686C44.7014 17.2104 44.6338 17.2314 44.54 17.2317C44.3942 17.2322 44.2742 17.1804 44.1802 17.0766C44.0965 16.9726 44.0336 16.853 43.9916 16.7177C43.9495 16.572 43.923 16.4263 43.9121 16.2805C43.9013 16.1347 43.8957 16.0253 43.8955 15.9524ZM43.2817 24.8137C43.2816 24.772 43.2814 24.6887 43.281 24.5637C43.291 24.4282 43.2959 24.3397 43.2958 24.298C43.6268 23.5366 44.0518 22.8322 44.5706 22.1848C45.0895 21.5374 45.6763 20.9627 46.3311 20.4607C46.3519 20.4606 46.3831 20.4553 46.4248 20.4448C46.4768 20.4238 46.5132 20.4132 46.534 20.4132C46.8153 20.4123 47.0446 20.4741 47.2221 20.5986C47.4099 20.7126 47.5563 20.8684 47.661 21.066C47.7762 21.2532 47.8549 21.4665 47.8973 21.7059C47.9397 21.935 47.9612 22.1589 47.9619 22.3776C47.9631 22.7839 47.8706 23.2112 47.6845 23.6597C47.4983 24.0978 47.2444 24.5048 46.9226 24.8808C46.6112 25.2463 46.2527 25.5495 45.8472 25.7903C45.4416 26.0207 45.0201 26.1365 44.5826 26.1379C44.1451 26.1392 43.8167 26.0256 43.5972 25.7971C43.3882 25.5582 43.283 25.2304 43.2817 24.8137ZM44.4999 24.6225C44.5003 24.7371 44.5474 24.8151 44.6412 24.8564C44.7351 24.8978 44.8289 24.9184 44.9227 24.9181C45.1831 24.9173 45.4329 24.8488 45.6721 24.7127C45.9216 24.5661 46.1398 24.3884 46.3267 24.1795C46.524 23.9601 46.6795 23.72 46.7933 23.4593C46.9071 23.1985 46.9636 22.9484 46.9629 22.7088C46.9625 22.5942 46.9517 22.4692 46.9305 22.3339C46.9196 22.1881 46.888 22.0632 46.8356 21.9592C46.7832 21.8447 46.6996 21.7564 46.5848 21.6943C46.4804 21.6321 46.3294 21.6221 46.1316 21.6644C45.9858 21.6961 45.8196 21.832 45.6328 22.0722C45.446 22.3123 45.2646 22.5941 45.0885 22.9176C44.9228 23.2306 44.7831 23.5487 44.6695 23.872C44.5559 24.1848 44.4993 24.435 44.4999 24.6225Z" fill="#777777"/>
</svg>
